<svg width="75" height="24" viewBox="0 0 75 24" fill="none" xmlns="http://www.w3.org/2000/svg">
<g clip-path="url(#clip0)">
<path d="M14.1818 0.00537109C13.1291 0.00537109 12.5157 0.816871 12.5157 1.97887V2.72987V10.0989V10.8714C12.5157 12.0074 13.1291 12.8309 14.1818 12.8309C15.215 12.8309 15.8554 12.0074 15.8554 10.8714V10.0989V2.72987V1.97887C15.8554 0.816871 15.215 0.00537109 14.1818 0.00537109Z" fill="#1756C2"/>
<path d="M22.0118 3.52672H21.2268V3.03922C21.2268 2.49172 21.546 2.26122 22.3901 2.35672C23.2882 2.44022 23.4898 1.86922 23.4898 1.41272C23.4898 1.05972 23.3867 0.880722 23.1141 0.564722C22.5322 -0.0122782 21.0597 0.00522176 21.0597 0.00522176C21.0597 0.00522176 19.7248 -0.0562782 18.8197 0.661722C17.9186 1.36072 17.9971 2.63372 17.9971 2.63372V3.52672H17.8525C17.2536 3.52672 16.6177 3.89922 16.6177 4.66422C16.6177 5.43472 17.3392 5.78772 17.9186 5.78772H17.9971V11.0947C17.9971 12.0072 18.557 12.8307 19.6612 12.8307C20.788 12.8307 21.2268 12.0332 21.2268 11.1462V5.78772H22.0118C22.4456 5.78772 23.3077 5.57622 23.3077 4.70872C23.3077 3.80822 22.6282 3.52672 22.0118 3.52672Z" fill="#1756C2"/>
<path d="M31.4307 3.23291C30.8903 3.23291 30.4585 3.47591 30.1758 3.84391C29.656 3.48341 28.9715 3.23291 28.1735 3.23291C24.7727 3.23291 23.2662 5.78791 23.2662 8.25492C23.2662 10.8959 25.0965 12.9389 28.1735 12.9389C28.9025 12.9389 29.605 12.6964 30.1718 12.3234C30.449 12.7009 30.8838 12.9389 31.4307 12.9389C32.4884 12.9389 33.0913 12.1244 33.0913 10.9744V5.20441C33.0913 4.07441 32.4884 3.23291 31.4307 3.23291ZM26.5694 8.12742C26.5694 6.02591 27.5896 5.65341 28.2751 5.65341C28.3021 5.65341 28.3366 5.65341 28.3606 5.65341C29.1482 5.71491 29.7686 6.23941 29.7686 8.21842C29.7686 10.1654 29.0961 10.5554 28.3992 10.5944C28.3581 10.5944 28.3376 10.5944 28.2941 10.5944C27.5116 10.5944 26.5689 10.2214 26.5689 8.12742H26.5694Z" fill="#1756C2"/>
<path d="M11.2261 10.3047C11.0529 9.78475 8.24257 1.77825 8.10298 1.40075C7.94837 1.02075 7.80628 0.745755 7.46655 0.508755C6.90518 0.0832558 5.70338 0.108756 5.70338 0.108756C5.70338 0.108756 4.51759 0.0812558 3.9462 0.508755C3.61198 0.746255 3.46939 1.02125 3.32229 1.40075C3.18019 1.77825 0.36982 9.78475 0.176191 10.3047C0.0185863 10.8127 -0.117504 11.4352 0.176191 11.9432C0.498406 12.4182 1.03026 12.8307 1.71772 12.8307C2.41468 12.8307 3.0326 12.5282 3.30278 11.6802C3.56545 10.8127 3.70304 10.3887 3.70304 10.3887H5.70338H7.71422C7.71422 10.3887 7.8448 10.8127 8.10998 11.6802C8.37466 12.5287 9.00808 12.8307 9.68603 12.8307C10.399 12.8307 10.9439 12.4182 11.2261 11.9432C11.5313 11.4352 11.4132 10.8127 11.2261 10.3047ZM4.45855 7.63125L5.70338 3.57075L6.95171 7.63125H4.45855Z" fill="#1756C2"/>
<path d="M70.6286 22.4733H0V23.9968H70.6286C72.796 23.9968 74.6112 22.4048 74.9425 20.3423C73.9713 21.6398 72.3908 22.4733 70.6286 22.4733Z" fill="#EFCF00"/>
<path d="M74.997 17.0589V15.8379H4.38092C1.97031 15.8379 0 17.8084 0 20.2199V21.4409H70.6286C73.0437 21.4409 74.997 19.4674 74.997 17.0589Z" fill="#D60F27"/>
<path d="M47.5234 3.13444C45.7367 3.13444 43.9995 5.52494 43.3831 6.44994C43.4106 6.23944 43.4567 5.91794 43.5552 5.55044C43.6853 4.94144 43.7979 4.07894 43.3831 3.57094C43.1405 3.27694 42.7822 3.13444 42.3019 3.13444C40.6473 3.13444 39.0127 5.24344 38.3137 6.27594C38.3963 5.97394 38.4953 5.59644 38.5614 5.37844C38.6695 4.87094 38.8831 4.07944 38.5409 3.61794C38.3367 3.33344 38.001 3.20544 37.5247 3.20544C36.7462 3.20544 35.8801 3.57094 35.8441 3.57094L35.6675 3.65044L35.8291 3.74544C35.8291 3.74544 36.0672 3.98344 35.8836 5.24344C35.5694 7.45844 34.8459 10.0989 34.5637 11.1464C34.4016 11.6804 34.4261 12.1169 34.6398 12.4064C34.8654 12.7009 35.2752 12.8699 35.7865 12.8699C36.5 12.8699 37.1484 12.6319 37.1845 12.5979L37.29 12.5704L37.2065 12.4629C37.2065 12.4559 36.8342 11.9034 37.3251 10.8294C38.9787 7.15294 40.3156 5.68944 40.6893 5.43944C40.7774 5.39844 40.8289 5.34944 40.8924 5.34944C40.9335 5.34944 40.954 5.37644 40.954 5.39694C40.995 5.41744 41.002 5.50794 40.995 5.59044C40.8604 6.86844 40.3201 9.00244 39.9728 10.4294C39.8983 10.7554 39.8182 11.0209 39.7757 11.2439C39.6481 11.7904 39.6906 12.2144 39.8983 12.4964C40.1049 12.7299 40.4391 12.8644 40.912 12.8644C41.6535 12.8644 42.3089 12.5924 42.3359 12.5874L42.4705 12.5329L42.3699 12.4419C42.3699 12.4074 42.0117 11.9409 42.5145 10.8039C43.7369 7.97594 45.388 5.76644 45.8172 5.44544C45.9623 5.34344 46.0364 5.33044 46.0799 5.33044C46.0939 5.33044 46.1004 5.33044 46.128 5.37144C46.162 5.40544 46.176 5.52644 46.162 5.67294C46.1555 5.72744 46.1074 5.90344 46.0689 6.16544C45.8242 7.14444 45.3895 9.16794 45.1513 10.5759C45.0087 11.4164 45.0777 12.0464 45.3895 12.4049C45.6421 12.6944 46.0374 12.8634 46.5182 12.8634C47.3573 12.8634 48.1328 12.3404 48.1673 12.3214L48.2899 12.2379L48.1773 12.1619C48.1773 12.1619 47.5834 11.6024 47.8751 9.95244C48.0818 8.84644 48.3484 7.57394 48.5501 6.64894C48.6456 6.18544 48.7072 5.79994 48.7587 5.58944L48.7722 5.50644C48.8798 4.99894 49.0419 4.07194 48.6026 3.54694C48.37 3.24294 48.0187 3.12744 47.5304 3.12744L47.5234 3.13444Z" fill="#D60F27"/>
<path d="M57.9643 3.23278C57.4574 3.23278 57.0446 3.36828 56.7625 3.64178C56.5558 3.51478 55.8513 3.13428 54.9267 3.13428C54.3989 3.13428 53.6228 3.23278 52.7523 3.78428C51.7856 4.38278 50.9706 5.33927 50.3056 6.64827C48.8016 9.57927 49.5226 11.7193 49.9008 12.2448C50.2301 12.7013 50.6859 12.9073 51.3433 12.9073C52.2734 12.9073 53.5108 12.5418 55.3975 9.57927C55.3425 9.99627 55.2805 10.5828 55.2805 11.0828C55.2805 12.6963 56.4177 12.8703 56.887 12.8703C58.1019 12.8703 58.5256 12.3038 58.5291 12.2843L58.5772 12.2228L58.5291 12.1613C58.5151 12.1408 57.9628 11.5773 58.3265 8.57577C58.6767 5.71577 59.6699 3.74478 59.6699 3.72078L59.7179 3.64128L59.6339 3.58628C59.5994 3.57278 58.7803 3.23328 57.9658 3.23328L57.9643 3.23278ZM52.7152 10.7098C52.4676 10.7098 52.3355 10.2853 52.3355 9.84177C52.3355 9.36077 52.5756 6.59227 53.7484 5.17227C54.0086 4.89577 54.3178 4.72127 54.627 4.72127C55.378 4.72127 56.08 5.52477 56.2541 5.73177C55.3435 7.58077 54.0646 9.49627 53.155 10.4348C52.9879 10.6213 52.8263 10.7098 52.7152 10.7098Z" fill="#D60F27"/>
<path d="M67.2871 3.13428C65.9737 3.13428 64.3962 5.30677 63.7287 6.31477C63.8393 5.87877 64.0014 5.23627 64.126 4.64477C64.212 4.20128 64.1535 3.85528 63.9814 3.62278C63.7557 3.36828 63.383 3.23278 62.8627 3.23278C62.1172 3.23278 61.2166 3.55828 61.1845 3.57078L61.0539 3.62528L61.1695 3.72378C61.1695 3.73778 61.4127 4.08178 61.2626 5.29027C61.054 6.60727 60.2154 9.89077 59.8617 11.2203C59.6991 11.7543 59.7391 12.1443 59.9352 12.4213C60.2344 12.8263 60.8163 12.8728 61.2166 12.8728C61.898 12.8728 62.5755 12.6348 62.605 12.6003L62.7351 12.5733L62.657 12.4658C62.652 12.4588 62.3328 11.9498 62.705 10.9668C63.7082 8.43577 64.8235 6.95727 65.4929 6.44977C65.6475 6.34177 65.8051 6.27577 65.9597 6.27577C66.3275 6.27577 66.5611 6.68827 66.5611 6.68827L66.6156 6.79127L66.6972 6.70777C67.0474 6.35977 67.6733 5.62077 67.901 4.95377C68.0586 4.55428 68.2627 3.84378 67.956 3.43128C67.8284 3.22528 67.6008 3.13428 67.2866 3.13428H67.2871Z" fill="#D60F27"/>
<path d="M74.8719 4.3238C74.5032 4.4513 73.598 4.5348 72.3832 4.5348C72.2466 4.5348 72.1336 4.5348 72.0575 4.5348C72.1121 4.2208 72.3322 3.3333 72.5704 2.4918C72.72 1.9843 72.703 1.5678 72.4888 1.2983C72.2782 1.0403 71.9324 0.924805 71.4071 0.924805C70.6706 0.924805 69.6104 1.2538 69.5694 1.2728L69.4118 1.3208L69.5473 1.4438C69.9541 1.8598 69.5128 3.8643 69.3237 4.6093C69.3027 4.6503 68.2685 8.6263 68.2685 10.5263C68.2685 12.1203 69.1421 12.9103 70.8157 12.9103C71.5962 12.9103 72.7345 12.6998 73.4995 12.0368C73.8337 11.7483 73.9808 11.3358 73.8927 10.8993C73.8447 10.5858 73.6891 10.3403 73.6891 10.3278L73.6346 10.2123L73.5365 10.3033C73.523 10.3033 73.1788 10.6418 72.4908 10.8743C72.2311 10.9503 72.027 11.0023 71.8164 11.0023C71.5952 11.0023 71.4091 10.9113 71.2345 10.7643C70.8472 10.3668 71.0969 8.9473 71.1799 8.4913C71.3095 7.7703 71.6282 6.4288 71.6973 6.0928C71.8179 6.0928 72.07 6.0878 72.3942 6.0878C72.6719 6.0878 72.9096 6.0928 73.1422 6.0928C74.5827 6.1203 74.986 5.0018 75 4.4108V4.2628L74.8719 4.3238Z" fill="#D60F27"/>
</g>
<defs>
<clipPath id="clip0">
<rect width="75" height="24" fill="white"/>
</clipPath>
</defs>
</svg>
