<svg width="76" height="24" viewBox="0 0 76 24" fill="none" xmlns="http://www.w3.org/2000/svg">
<path d="M41.2103 11.4243C46.0109 9.23173 46.7209 2.07666 39.8924 2.07666H31.9846L29.0622 7.84688H30.4375L26.942 21.6377H36.1104C42.7992 21.6952 45.8073 13.764 41.2103 11.4243ZM36.1104 16.6176H33.8183L34.6778 13.5018H36.8552C39.4338 14.021 37.8295 16.7329 36.1104 16.6176ZM37.4856 9.98173H35.5374L36.1104 7.26977H38.2878C40.3918 7.78913 38.5745 10.0972 37.4856 9.98173Z" fill="#005FAF"/>
<path d="M59.9825 9.44586L62.9845 4.10929L58.9224 1.97559L58.3925 2.63409C56.2011 1.46599 44.7261 3.07884 44.0076 14.4775C44.4371 24.0396 55.0774 22.3195 56.1211 21.7128L59.0476 15.6209C56.1814 17.522 50.3127 18.4347 50.0644 12.724C50.5792 8.01484 56.1006 6.25622 59.9825 9.44586ZM74.9629 2.07651H65.734L62.8005 7.674H64.3075L57.3524 21.6375H64.0845L65.4667 18.2695H69.5991L69.7022 21.6375H75.8993L74.9629 2.07651ZM67.3389 13.7349L69.599 8.30257L69.702 13.7349H67.3389Z" fill="#005FAF"/>
<path d="M17.3295 20.7036L17.688 20.5989L17.2948 20.0518L17.3295 20.7036ZM11.4437 20.6105L11.3744 21.0996C11.5528 21.082 11.7725 21.2369 11.8601 20.8899C11.8535 20.6196 11.6491 20.6047 11.4437 20.6105ZM14.3 20.5989C14.2703 20.4657 14.1599 20.3676 13.8837 20.4593L13.9762 20.9598C14.2031 20.9091 14.3197 20.774 14.3 20.5989ZM7.84751 20.1892L7.73709 20.634C7.91454 20.6414 8.12239 20.7864 8.2402 20.5228C8.24809 20.3577 8.25482 20.1932 7.84751 20.1892ZM14.0572 21.3325L14.1382 21.8449C14.3276 21.8497 14.5005 21.7351 14.4504 21.4957C14.4021 21.2654 14.21 21.3018 14.0572 21.3325Z" fill="#005FAF"/>
<path d="M21.5774 2.34026C15.4541 -0.800884 8.14132 -0.713524 2.30709 2.20327C-0.701375 7.53635 -0.797167 14.9982 2.30709 21.6071C8.73463 24.8824 15.8436 24.6666 21.6226 21.7441C24.3386 16.133 24.7871 9.38116 21.5774 2.34026ZM11.2359 18.2649L10.8729 18.269C10.7831 17.2591 10.5433 16.4103 10.029 15.7607C7.67074 12.7827 2.84996 15.0248 4.08868 9.96373C4.73276 7.37635 12.0794 5.85037 11.2359 18.2649ZM4.09738 13.2662C4.61232 14.3216 7.8385 14.4945 8.95842 15.3024C10.7349 16.5839 10.4799 18.2695 10.4799 18.2695H10.0609C9.2361 15.7237 6.92117 17.7394 5.06696 17.0538C3.90284 16.6368 3.05765 14.8296 4.09738 13.2662ZM9.97532 21.5655L10.1488 20.1799L10.461 20.2032L10.3222 21.7285C10.1822 22.4004 9.1873 22.3106 9.06177 21.6703L9.22361 20.0867L9.59363 20.1451L9.43179 21.4724C9.45232 21.9117 9.88988 21.8854 9.97532 21.5655ZM8.314 21.9439L7.95811 21.8574C7.99985 21.5612 8.34867 20.9586 7.65924 20.9586L7.46733 21.7462L7.07463 21.6721L7.49181 19.7814C8.5115 19.8933 8.60072 20.179 8.62093 20.4858C8.58068 20.7237 8.51775 20.8898 8.31417 20.9305C8.55241 21.1483 8.31696 21.6046 8.314 21.9439ZM6.05363 19.8263C5.95554 19.9573 5.75919 20.4151 5.73076 20.78C5.70053 21.1666 6.0694 21.0852 6.16125 21.0401C6.23535 21.0038 6.29039 20.6933 6.29039 20.6933L6.0321 20.6066L6.1182 20.3466L6.69952 20.5417L6.4197 21.5172L6.18294 21.452L6.20446 21.3003C5.91462 21.4333 5.38408 21.3336 5.3218 20.9969C5.25953 20.7263 5.44815 19.9062 5.75229 19.523C6.04788 19.1504 6.76804 19.5146 6.78562 19.7397C6.80303 19.9641 6.71513 20.2166 6.71513 20.2166L6.44402 20.1651C6.44402 20.1651 6.46062 20.0841 6.48428 19.9563C6.50925 19.821 6.15878 19.6855 6.05363 19.8263ZM11.3399 21.414L11.2706 22.2525L10.9815 22.2409L11.0855 20.2497C11.8073 20.2647 12.2211 20.3653 12.2073 20.8786C12.1642 21.5798 11.6003 21.4221 11.3399 21.414ZM12.0594 18.2694H11.5758C11.5329 16.545 11.8622 13.3909 10.9625 11.0698C10.2808 9.31018 8.55554 8.51865 8.17319 7.09723C7.56788 4.84739 8.59809 2.41306 12.0594 2.2256C15.0601 2.53583 15.9821 4.86857 15.4702 7.04048C14.5902 9.21207 13.71 8.90002 12.6143 11.0632C11.7193 13.382 12.06 16.4199 12.0594 18.2694ZM17.4222 21.4606L17.0869 21.5771L16.9827 19.5743L17.3759 19.4696L18.3473 21.1229L18.0813 21.2977L17.7574 20.8321L17.3874 20.9717L17.4222 21.4606ZM13.5099 18.2694H13.1231C13.4419 13.8408 18.9683 14.8029 19.4734 13.2662C20.3469 14.7897 20.0329 16.0743 19.1208 16.7328C16.8544 18.3698 14.6811 15.5213 13.5099 18.2694ZM15.5606 20.506L15.7341 21.4259C15.8421 21.6378 15.9154 21.5986 16.081 21.5773C16.2731 21.4373 16.233 21.301 16.1966 21.1231L16.532 21.0766C16.6194 21.7431 16.3048 21.8111 16.0695 21.8567C15.5649 21.8931 15.466 21.7942 15.3294 21.1349C15.2499 20.5705 15.1125 19.9745 15.5838 19.8657C16.3573 19.7467 16.3117 20.0973 16.3817 20.343L16.0463 20.4014C15.9927 20.1903 15.9157 20.1066 15.7456 20.1221C15.5907 20.1938 15.5271 20.3097 15.5606 20.506ZM14.8552 21.4606C14.8713 21.7507 14.7736 21.9433 14.5892 22.008L13.8029 22.1709L13.4907 20.2497C13.652 20.2232 14.4432 19.9313 14.6354 20.4595C14.7302 20.7819 14.632 20.8976 14.5197 21.0415C14.7325 21.1104 14.8043 21.2771 14.8552 21.4606ZM12.8359 11.8191C14.5878 6.8522 18.5964 7.72993 19.4854 9.96389C20.7034 14.4465 16.7814 13.2172 14.2692 15.0554C13.3196 15.887 12.82 16.841 12.8126 18.2872H12.3821C12.3563 15.3742 12.3095 13.3115 12.8359 11.8191Z" fill="#005FAF"/>
</svg>
