<svg width="82" height="24" viewBox="0 0 82 24" fill="none" xmlns="http://www.w3.org/2000/svg">
<g clip-path="url(#clip0)">
<path fill-rule="evenodd" clip-rule="evenodd" d="M10.812 0.0454394C6.85845 0.420939 3.65418 2.52194 1.7083 5.76494C0.44393 7.87194 -0.150893 10.3689 0.032436 12.9309C0.481293 19.1989 5.84815 24.5054 12.7175 23.9594C18.881 23.4689 23.9663 17.9039 23.4457 11.0599C23.2549 8.55394 22.3866 6.48844 20.9957 4.62394C20.366 3.77944 20.242 3.76594 19.5844 3.07444C18.7689 2.21694 17.0437 1.23294 15.9432 0.796939C14.4671 0.212939 12.588 -0.123061 10.812 0.0454394Z" fill="#108DE8"/>
<path fill-rule="evenodd" clip-rule="evenodd" d="M4.94126 8.50354C4.79131 8.93804 4.88099 13.768 4.88049 14.6635C4.88049 15.6325 4.69018 15.9355 6.20066 16.454C10.2005 17.827 14.1615 13.172 18.139 15.475C18.3233 15.5815 18.5475 15.8005 18.6003 15.447L18.6018 9.23404C18.6023 8.56554 18.6616 8.35654 18.2202 8.04754C14.6612 5.55904 10.8073 9.81554 7.19602 9.33804C5.85941 9.16154 5.30593 8.47704 4.94126 8.50354Z" fill="white"/>
<path fill-rule="evenodd" clip-rule="evenodd" d="M32.4208 18.0812C33.9801 18.1927 35.7965 16.9792 36.4362 16.2842C38.659 13.8697 38.7128 10.3762 36.475 7.84825C35.6421 6.90675 33.6907 5.86625 32.4468 6.01175L27.9527 6.01525L27.9517 18.0662L32.4208 18.0812ZM30.476 15.4702C30.8073 15.5277 32.1668 15.5062 32.5399 15.4717C35.6102 15.1902 36.6942 10.9777 34.1137 9.21275C33.6852 8.91975 33.2085 8.68625 32.5833 8.61625C32.2405 8.57775 30.7779 8.55425 30.4745 8.60875L30.476 15.4702Z" fill="#108DE8"/>
<path fill-rule="evenodd" clip-rule="evenodd" d="M71.7808 18.1041L74.337 18.1031L74.3394 15.5056L79.4119 15.5066L79.4268 18.1031L81.9815 18.1036C81.9829 16.6601 81.9819 15.2286 81.9819 13.7966C81.9819 12.5071 82.09 10.8926 81.7732 9.72309C81.2372 7.74309 79.361 5.98709 76.8921 5.97709C74.3967 5.96759 72.5854 7.71859 72.007 9.66959C71.6647 10.8246 71.7793 12.4801 71.7793 13.7511C71.7793 15.2001 71.7644 16.6561 71.7808 18.1041ZM74.3394 12.8926L79.4243 12.8946C79.4368 11.7806 79.5558 10.6976 79.0577 9.84409C78.7015 9.23359 77.9497 8.59459 76.8936 8.59009C75.816 8.58559 75.0977 9.19909 74.7136 9.83159C74.2099 10.6611 74.3235 11.8036 74.3394 12.8926Z" fill="#108DE8"/>
<path fill-rule="evenodd" clip-rule="evenodd" d="M42.5439 18.101L45.0911 18.1035C45.0926 17.5615 45.0228 15.8995 45.116 15.5055L50.1685 15.506L50.1865 18.1015L52.7376 18.104C52.7242 16.665 52.7361 15.228 52.7361 13.7965C52.7361 12.569 52.8492 10.81 52.5289 9.72146C51.0692 4.76395 44.2731 4.72895 42.7646 9.67146C42.4234 10.791 42.5399 12.5045 42.5399 13.751C42.5399 15.19 42.507 16.6675 42.5439 18.101ZM45.0926 12.892L50.184 12.895C50.1944 11.797 50.314 10.6935 49.8148 9.84196C48.9012 8.28246 46.5767 8.05846 45.4712 9.83396C44.9661 10.646 45.0761 11.823 45.0926 12.892Z" fill="#108DE8"/>
<path fill-rule="evenodd" clip-rule="evenodd" d="M57.2211 10.7187L57.1862 12.5187C57.1862 14.0282 57.1115 16.8437 57.1917 18.0682L59.6896 18.0697C59.7478 17.2112 59.5994 11.0862 59.7578 10.8912C59.7583 9.70071 60.9948 8.59422 62.2452 8.58972C63.0134 8.58672 63.5738 8.90022 63.9813 9.27272C64.2997 9.56371 64.7869 10.2262 64.7774 10.8972C64.894 10.9632 64.8018 17.3522 64.8387 18.0677L67.3396 18.0697L67.3196 10.7552C67.3819 10.1822 67.0382 9.29672 66.8175 8.84672C64.9662 5.07022 59.6527 5.02022 57.7487 8.78172C57.5255 9.22272 57.1683 10.1327 57.2211 10.7187Z" fill="#108DE8"/>
<path fill-rule="evenodd" clip-rule="evenodd" d="M32.4211 18.0813L27.952 18.0663L27.953 6.01536L32.4471 6.01186C32.3654 5.89736 30.4902 5.96586 30.2277 5.96586C29.5736 5.96586 28.5418 5.90386 27.934 5.97536C27.8768 6.16736 27.8533 17.7953 27.9301 18.1083C28.3441 18.1618 31.2275 18.1208 32.1392 18.1228L32.3898 18.0968C32.3977 18.0943 32.4107 18.0863 32.4211 18.0813Z" fill="#79BBE7"/>
<path fill-rule="evenodd" clip-rule="evenodd" d="M64.7776 10.8974C64.804 11.8834 64.7243 17.7579 64.8159 18.1099L67.3621 18.1209C67.4284 17.8384 67.388 13.2579 67.388 12.5649C67.388 12.2329 67.4762 10.9309 67.3198 10.7554L67.3397 18.0699L64.8388 18.0679C64.802 17.3524 64.8941 10.9634 64.7776 10.8974Z" fill="#79BBE7"/>
<path fill-rule="evenodd" clip-rule="evenodd" d="M59.758 10.8912C59.5996 11.0862 59.7481 17.2112 59.6898 18.0697L57.1919 18.0682C57.1117 16.8437 57.1865 14.0282 57.1865 12.5187L57.2213 10.7188C57.0794 10.7807 57.1426 13.9893 57.1426 14.3898C57.1426 14.9728 57.0739 17.7768 57.173 18.1112L59.7182 18.1202L59.758 10.8912Z" fill="#79BBE7"/>
</g>
<defs>
<clipPath id="clip0">
<rect width="82" height="24" fill="white"/>
</clipPath>
</defs>
</svg>
