<svg width="104" height="24" viewBox="0 0 104 24" fill="none" xmlns="http://www.w3.org/2000/svg">
<g clip-path="url(#clip0)">
<path d="M11.9965 24C18.6221 24 23.9931 18.6274 23.9931 12C23.9931 5.37258 18.6221 0 11.9965 0C5.37104 0 0 5.37258 0 12C0 18.6274 5.37104 24 11.9965 24Z" fill="#02AFD9"/>
<path fill-rule="evenodd" clip-rule="evenodd" d="M5.06263 14.6923C5.19947 16.6542 6.43106 18.1599 8.71177 18.2968C10.9013 18.3881 13.0451 18.3881 15.2346 18.2968C17.2416 18.1599 18.7469 16.6542 18.8837 14.6923C18.975 13.6885 19.0206 12.6847 18.975 11.6808C18.4732 8.94321 16.1925 8.85195 16.0101 8.85195H15.9644H8.30124C8.02756 8.85195 7.79949 8.62382 7.79949 8.35005C7.79949 8.07629 8.02756 7.89378 8.30124 7.89378H16.0101C15.9188 6.06868 13.9118 5.70366 12.9539 5.65804H12.4521C11.2206 5.61241 9.94336 5.65804 8.71177 5.74929C6.38544 5.9318 5.19947 7.34625 5.06263 9.35385C4.92579 11.1333 4.92579 12.9128 5.06263 14.6923ZM16.603 13.6428V14.3272C16.603 14.5554 16.4206 14.7379 16.1469 14.7379C15.9188 14.7379 15.7364 14.5554 15.7364 14.3272V13.6428C15.5083 13.5059 15.3715 13.3234 15.3715 13.0497C15.3715 12.6847 15.7364 12.3653 16.1469 12.3653C16.5574 12.3653 16.9223 12.6847 16.9223 13.0497C16.9223 13.3234 16.7855 13.5059 16.603 13.6428Z" fill="#FEFEFE"/>
<path fill-rule="evenodd" clip-rule="evenodd" d="M84.4773 10.9052V13.0953C84.4773 13.0953 83.7019 14.5554 81.1475 14.8748C78.5931 15.2398 78.5931 13.6428 78.7755 13.2322C78.958 12.8215 79.551 12.274 81.6949 11.909C83.93 11.544 84.4773 10.9052 84.4773 10.9052ZM87.4879 8.80634V17.293H84.7054V15.9242C83.7931 16.7455 82.5159 17.5212 80.737 17.6124C75.172 17.7493 73.0281 11.5896 79.7791 9.76451C81.3756 9.30824 82.9264 9.44512 83.7475 9.03447C84.2949 8.71508 84.4317 8.21318 84.0668 7.75691C82.6984 5.93181 79.4141 6.66185 78.5019 9.17135L75.7194 8.48694C76.4492 5.70367 78.6843 4.47174 81.3756 4.19797C84.2492 3.92421 87.4879 5.47554 87.4879 8.80634ZM34.8034 7.30063C32.7964 7.30063 31.1543 8.94322 31.1543 10.9964C31.1543 13.0041 32.7964 14.6466 34.8034 14.6466C36.8104 14.6466 38.4525 13.0041 38.4525 10.9964C38.4525 8.94322 36.8104 7.30063 34.8034 7.30063ZM42.0105 4.60862H38.4525V5.97744C37.3578 5.01926 35.8981 4.42611 34.256 4.42611C30.6981 4.42611 27.7788 7.39189 27.7788 11.0421C27.7788 14.7379 30.6981 17.7037 34.256 17.7037C35.8981 17.7037 37.3578 17.1105 38.4525 16.1523V17.3843C38.4525 19.3463 37.0385 20.8976 35.0771 20.8976C33.435 20.8976 32.1122 20.5782 31.0174 19.3006L28.7367 21.3539C30.6069 23.3615 32.4771 24.0003 35.1227 24.0003C38.9543 24.0003 42.0105 21.3995 42.0105 17.0193V15.1029V4.60862ZM104 4.38048H100.26L96.5195 12.5478L92.2317 4.38048H88.4458L94.6493 16.0155L91.3651 22.7683H95.1511L104 4.38048ZM67.1895 7.30063C69.2422 7.30063 70.8843 8.94322 70.8843 10.9964C70.8843 13.0041 69.2422 14.6466 67.1895 14.6466C65.1825 14.6466 63.5404 13.0041 63.5404 10.9964C63.5404 8.94322 65.1825 7.30063 67.1895 7.30063ZM60.0281 4.60862H63.5404V5.97744C64.6807 5.01926 66.1404 4.42611 67.7369 4.42611C71.2948 4.42611 74.2141 7.39189 74.2141 11.0421C74.2141 14.7379 71.2948 17.7037 67.7369 17.7037C66.1404 17.7037 64.6807 17.1105 63.5404 16.1523V22.7683H60.0281V4.60862ZM50.6315 7.20938C52.8666 7.20938 54.6456 8.94322 54.6456 11.0421C54.6456 13.1866 52.8666 14.9204 50.6315 14.9204C48.4421 14.9204 46.6631 13.1866 46.6631 11.0421C46.6631 8.94322 48.4421 7.20938 50.6315 7.20938ZM50.6315 4.15234C54.5544 4.15234 57.7474 7.25501 57.7474 11.0421C57.7474 14.8748 54.5544 17.9774 50.6315 17.9774C46.7087 17.9774 43.5157 14.8748 43.5157 11.0421C43.5157 7.25501 46.7087 4.15234 50.6315 4.15234Z" fill="#1D1819"/>
</g>
<defs>
<clipPath id="clip0">
<rect width="104" height="24" fill="white"/>
</clipPath>
</defs>
</svg>
