<svg width="72" height="24" viewBox="0 0 72 24" fill="none" xmlns="http://www.w3.org/2000/svg">
<g clip-path="url(#clip0)">
<path fill-rule="evenodd" clip-rule="evenodd" d="M2.07978 0H69.9202C70.4718 0 71.0008 0.217622 71.3908 0.604993C71.7809 0.992363 72 1.51775 72 2.06557V21.9344C72 22.4823 71.7809 23.0076 71.3908 23.395C71.0008 23.7824 70.4718 24 69.9202 24H2.07978C1.52819 24 0.999188 23.7824 0.609153 23.395C0.219119 23.0076 0 22.4823 0 21.9344V2.06557C0.00182764 1.51831 0.221533 0.993975 0.611172 0.606998C1.00081 0.22002 1.52875 0.00181516 2.07978 0Z" fill="#F0F0F0"/>
<path fill-rule="evenodd" clip-rule="evenodd" d="M71.2077 16.2915V21.9345C71.2077 22.2736 71.0721 22.5988 70.8306 22.8386C70.5892 23.0784 70.2617 23.2131 69.9202 23.2131H2.07978C1.73832 23.2131 1.41084 23.0784 1.16939 22.8386C0.927942 22.5988 0.792297 22.2736 0.792297 21.9345V16.2915H71.2077Z" fill="#FECF22"/>
<path d="M71.2077 8.521H0.792297V15.48H71.2077V8.521Z" fill="#006AB4"/>
<path fill-rule="evenodd" clip-rule="evenodd" d="M2.07978 0.787109H69.9202C70.2617 0.787109 70.5892 0.921828 70.8306 1.16163C71.0721 1.40143 71.2077 1.72667 71.2077 2.0658V7.70973H0.792297V2.0658C0.792297 1.72667 0.927942 1.40143 1.16939 1.16163C1.41084 0.921828 1.73832 0.787109 2.07978 0.787109Z" fill="#D61627"/>
<path fill-rule="evenodd" clip-rule="evenodd" d="M11.5506 5.6449C16.2727 4.25605 20.2659 3.42982 24.0788 2.94785C27.4907 2.51605 30.7341 2.36359 34.2054 2.33212V2.32031H37.9312V2.3331C41.3737 2.36851 44.5973 2.52392 47.9874 2.95572C51.7775 3.43966 55.7559 4.26392 60.4502 5.6449C60.9662 5.79736 61.4673 6.03835 61.8457 6.41212C62.0537 6.61196 62.2184 6.85196 62.3296 7.11736C62.4408 7.38276 62.4962 7.66795 62.4924 7.9554V16.0446C62.496 16.332 62.4406 16.6171 62.3294 16.8825C62.2182 17.1479 62.0536 17.3879 61.8457 17.5879C61.4673 17.9626 60.9662 18.2026 60.4502 18.3541C55.7559 19.7311 51.7775 20.5603 47.9874 21.0433C44.5973 21.476 41.3737 21.6334 37.9312 21.6659V21.6777H36.713H36.2475H35.7523H35.0591C31.3056 21.6639 27.8581 21.5292 24.2561 21.0875C20.4085 20.6115 16.3628 19.7793 11.5506 18.3639C11.0347 18.2124 10.5335 17.9705 10.1552 17.5977C9.94593 17.3966 9.78046 17.1551 9.66904 16.8879C9.55763 16.6207 9.50264 16.3337 9.5075 16.0446V7.9554C9.50383 7.66789 9.55939 7.38267 9.67077 7.11728C9.78216 6.85188 9.94701 6.61191 10.1552 6.41212C10.5335 6.03638 11.0347 5.79736 11.5506 5.6449Z" fill="#E6E6E6"/>
<path fill-rule="evenodd" clip-rule="evenodd" d="M44.1842 14.7354C43.8871 14.3272 44.1714 13.6485 44.3823 13.2689C44.6022 12.8656 44.927 12.3551 45.441 12.4525C45.6767 13.2944 44.9221 14.8131 44.1872 14.7354H44.1842ZM28.1828 12.3994C28.5641 13.3485 27.3113 15.0866 26.8874 14.6125C26.5437 14.2279 27.3469 12.2046 28.1828 12.3994ZM30.8192 14.6135L30.6706 14.2899C30.2557 14.3833 29.6 14.7649 29.1355 14.6558C28.882 14.0813 30.7043 10.3013 31.0529 9.14756L30.1388 9.18788C29.8803 9.61084 29.4039 11.0902 29.1702 11.3971C27.5539 11.2289 26.8805 11.6921 26.2209 12.5489C25.1503 13.9397 25.9357 14.0784 25.1315 14.5348C24.4214 14.9361 24.5234 14.7089 24.4699 14.6508C24.1728 14.3961 25.0017 12.6413 25.08 12.2577C25.179 11.759 24.9215 11.3607 24.4551 11.3872C24.0183 11.4128 23.6915 11.7207 23.3805 11.8879C22.301 12.4662 23.3181 10.2305 20.3767 12.2941C20.1499 12.4535 19.5844 12.781 19.4675 12.8921C19.4933 12.7092 20.3401 10.8944 20.5124 10.4685C20.8442 9.65018 21.1769 8.80231 21.4602 7.97018C20.3926 7.89838 17.2135 8.44526 16.2459 9.30198C14.4186 10.922 16.5975 13.0613 18.0375 11.4167C17.6898 11.1679 17.157 11.4089 17.0758 10.7715C17.0055 10.2246 17.2026 9.86067 17.5007 9.63346C17.8641 9.3551 19.4586 9.07083 20.0222 8.96559C19.9627 9.26067 19.7161 9.81838 19.5973 10.1459C18.9664 11.8899 18.1949 14.5515 15.9547 14.6203C14.7821 14.6567 14.4474 14.1364 14.0314 13.3417C13.7739 13.6298 13.6689 14.2269 13.8165 14.6607C13.9502 15.0541 14.2592 15.3187 14.6246 15.4948C16.3756 16.3338 17.9216 14.9203 19.1645 13.9643C19.4784 13.7233 20.6441 12.5479 21.2443 12.84C21.579 13.502 20.6085 14.8928 20.5867 15.5803L21.7404 15.6049C21.9484 15.0364 22.1168 14.4167 22.3149 13.8207C22.4832 13.3151 22.7179 12.4121 23.3874 12.8705C23.6439 13.5502 22.5545 14.9735 23.1507 15.4505C23.7707 15.9423 25.1612 14.9587 25.492 14.7571C25.7505 15.1259 25.7455 15.5872 26.412 15.6994C26.9439 15.7879 27.4826 15.538 27.7847 15.2912C27.9729 15.5223 27.9263 15.7525 28.3621 15.7121C28.7978 15.6718 30.0625 14.8446 30.8231 14.6164L30.8192 14.6135ZM52.7143 13.6436C52.6618 13.0466 53.3254 12.2223 53.7968 12.2439C53.9532 12.5951 53.6789 12.9817 53.4997 13.1882C53.3016 13.4243 53.0857 13.68 52.7074 13.6436H52.7143ZM35.3521 12.2233L35.4828 12.6256C35.8443 12.5272 36.2444 12.2902 36.6059 12.3895C36.7188 13.0712 35.6769 14.9469 35.5264 15.7338L36.6624 15.7102C36.8862 15.3364 37.1219 14.462 37.2952 14.0036C37.4755 13.5266 37.6854 12.5961 38.346 12.8233C38.7352 13.5876 37.6765 14.9597 37.5973 15.7072L38.8937 15.719C39.1333 15.0305 39.4037 14.1797 39.686 13.502C39.8256 13.1656 39.9722 12.6394 40.4783 12.779C41.0517 12.9394 40.0623 14.0056 40.0732 14.9489C40.0732 15.3708 40.3703 15.7417 40.7902 15.6994C41.3547 15.6453 42.3005 14.8771 42.7858 14.7689C43.0077 15.2666 43.0552 15.5754 43.6474 15.6679C44.2397 15.7603 44.6378 15.4771 45.0221 15.2528C45.034 15.2656 45.0468 15.2843 45.0538 15.2931L45.1409 15.4151C45.2598 15.5862 45.3271 15.719 45.6163 15.7485C46.573 15.8469 47.9853 14.3282 48.5379 13.6043C49.1539 12.7958 48.9024 12.8577 49.6956 12.7889C49.5213 13.5335 48.6676 14.7236 49.3896 15.4446C50.1116 16.1656 51.5556 15.1938 51.9933 14.938C52.3974 15.3817 52.6123 15.7751 53.5779 15.7318C54.3355 15.6974 54.7554 15.3944 55.3606 15.2194C56.0994 16.4253 58.5129 15.239 58.4208 14.5053C58.1088 14.4462 57.7454 14.8771 57.4304 15.0482C56.9877 15.2853 56.5391 15.1348 56.5272 14.6233C56.5223 14.3705 57.1403 12.4938 57.2631 12.2626L57.994 12.2558L58.2366 11.4295L57.7226 11.4197C57.8216 10.5541 58.2812 9.81247 58.4376 9.04624L57.4116 9.08755L56.5876 11.3498L55.835 11.3921L55.6567 12.242L56.2509 12.2321C56.1251 13.0387 55.6567 14.1256 55.2437 14.6371C54.8159 15.1672 53.2857 15.483 53.0084 14.5564C53.3669 14.158 53.9919 14.0646 54.4811 13.2266C55.7062 11.1207 53.26 10.8659 52.2627 12.3305C51.6397 13.2462 51.8329 13.5295 51.8665 14.6144C50.6345 15.2941 50.2027 15.4289 50.3136 14.2318C50.4246 13.019 50.6107 13.2 50.8148 12.9846C50.9693 12.8194 51.0277 12.5223 50.8583 12.36C50.6603 12.1584 50.3285 12.3374 49.967 12.2076C49.7353 11.6371 50.1314 11.5426 50.2909 11.2308C50.0799 11.1817 49.9115 11.2102 49.6966 11.1777C49.1925 11.101 49.6441 11.0872 49.3064 10.8944C49.0153 11.0056 48.9954 11.0164 48.8934 11.34C48.5963 12.2705 48.7063 12.4731 48.1923 13.1902C47.913 13.5836 46.9682 14.8908 46.3175 14.6499C46.0204 14.2564 47.1623 11.9538 47.3079 11.3764C46.1422 11.2899 46.3175 11.5102 46.1531 11.6902C45.0756 11.2082 44.5091 11.6174 43.8475 12.2007C42.9007 13.0358 42.8571 14.2387 42.7432 14.3705C42.456 14.5564 41.8727 14.8112 41.4468 14.6577C41.324 14.1758 42.0777 12.7643 42.2005 12.1899C42.3293 11.5839 41.9777 11.2613 41.3637 11.4187C40.9011 11.5367 40.7249 11.9617 40.3 12.0167C39.9425 11.7669 39.9266 11.2426 39.1957 11.3676C38.6807 11.4551 38.6481 11.8594 38.0637 11.9705C38.0534 11.9532 38.0445 11.9351 38.037 11.9164L37.9726 11.7571C37.9439 11.6784 37.8795 11.4285 37.7488 11.3636C37.1457 11.2899 35.9681 12.0433 35.3521 12.2233Z" fill="#006AB4"/>
<path fill-rule="evenodd" clip-rule="evenodd" d="M33.0535 11.8897C33.3855 11.8899 33.7072 12.0044 33.9637 12.2137C34.2202 12.423 34.3957 12.7142 34.4603 13.0376C34.5249 13.361 34.4746 13.6967 34.318 13.9874C34.1613 14.2781 33.9081 14.5059 33.6013 14.6319C33.2945 14.758 32.9532 14.7745 32.6355 14.6786C32.3179 14.5827 32.0435 14.3805 31.8592 14.1062C31.6749 13.832 31.592 13.5028 31.6246 13.1746C31.6573 12.8465 31.8035 12.5398 32.0384 12.3067C32.1717 12.1743 32.33 12.0694 32.5042 11.9978C32.6783 11.9263 32.865 11.8895 33.0535 11.8897ZM33.0535 10.6602C32.4349 10.6603 31.8355 10.8735 31.3574 11.2633C30.8793 11.6532 30.552 12.1956 30.4314 12.7982C30.3108 13.4008 30.4043 14.0262 30.696 14.5681C30.9877 15.1099 31.4595 15.5345 32.031 15.7695C32.6025 16.0046 33.2385 16.0356 33.8304 15.8573C34.4224 15.6789 34.9338 15.3022 35.2775 14.7914C35.6212 14.2805 35.7759 13.6672 35.7153 13.0557C35.6547 12.4443 35.3825 11.8727 34.9451 11.4382C34.697 11.1911 34.4022 10.9951 34.0776 10.8616C33.7529 10.728 33.4049 10.6596 33.0535 10.6602ZM34.7372 11.6438C34.349 11.257 33.8379 11.0158 33.2908 10.9612C32.7437 10.9067 32.1945 11.0423 31.7368 11.3448C31.279 11.6473 30.941 12.0981 30.7804 12.6203C30.6197 13.1426 30.6463 13.704 30.8557 14.2089C31.065 14.7139 31.4442 15.1311 31.9285 15.3896C32.4128 15.6481 32.9724 15.7318 33.5119 15.6264C34.0515 15.5211 34.5375 15.2333 34.8873 14.812C35.2371 14.3907 35.4291 13.862 35.4304 13.3159C35.4316 13.0056 35.3709 12.698 35.2519 12.4111C35.1329 12.1241 34.958 11.8633 34.7372 11.6438ZM33.0535 11.272C32.5784 11.2722 32.118 11.436 31.7508 11.7355C31.3836 12.035 31.1324 12.4516 31.0398 12.9145C30.9472 13.3773 31.019 13.8577 31.2431 14.2739C31.4671 14.69 31.8295 15.0161 32.2685 15.1967C32.7074 15.3773 33.1959 15.4011 33.6506 15.2642C34.1053 15.1272 34.4981 14.8379 34.7621 14.4456C35.0262 14.0533 35.1451 13.5822 35.0986 13.1125C35.0522 12.6429 34.8432 12.2038 34.5074 11.87C34.3168 11.68 34.0902 11.5293 33.8406 11.4267C33.5911 11.3241 33.3236 11.2715 33.0535 11.272ZM34.2974 12.0785C34.0098 11.7922 33.6311 11.6138 33.2258 11.5737C32.8206 11.5337 32.4139 11.6344 32.0751 11.8589C31.7363 12.0833 31.4863 12.4174 31.3678 12.8044C31.2493 13.1914 31.2696 13.6072 31.4252 13.981C31.5809 14.3547 31.8622 14.6633 32.2213 14.8541C32.5804 15.0449 32.995 15.1062 33.3944 15.0274C33.7939 14.9486 34.1534 14.7346 34.4118 14.422C34.6702 14.1094 34.8114 13.7174 34.8114 13.3129C34.8119 13.0837 34.7667 12.8566 34.6785 12.6448C34.5903 12.4329 34.4608 12.2405 34.2974 12.0785ZM33.8597 12.5133C33.6733 12.3275 33.4278 12.2117 33.1651 12.1856C32.9023 12.1595 32.6386 12.2247 32.4189 12.3702C32.1992 12.5156 32.037 12.7322 31.9601 12.9831C31.8832 13.2339 31.8963 13.5035 31.9971 13.7459C32.098 13.9883 32.2804 14.1884 32.5132 14.3121C32.746 14.4359 33.0148 14.4756 33.2738 14.4245C33.5328 14.3734 33.7659 14.2347 33.9334 14.032C34.1009 13.8293 34.1925 13.5752 34.1925 13.3129C34.1921 13.0141 34.0724 12.7276 33.8597 12.5162V12.5133Z" fill="#D61627"/>
<path fill-rule="evenodd" clip-rule="evenodd" d="M11.8845 6.77491C21.2157 4.02966 27.6314 3.51524 35.3939 3.50146H36.7428C44.4429 3.52212 50.8397 4.0454 60.1156 6.77491C60.7425 6.95884 61.304 7.30605 61.304 7.95524V16.0444C61.304 16.6936 60.7425 17.0398 60.1156 17.2247C50.8397 19.9533 44.4429 20.4775 36.7428 20.4972H35.7524C27.8294 20.4972 21.3593 20.0113 11.8845 17.2238C11.2585 17.0388 10.696 16.6926 10.696 16.0434V7.95524C10.696 7.30605 11.2585 6.95884 11.8845 6.77491ZM35.5623 5.27392C28.3127 5.30146 21.8179 5.57491 13.3205 7.75851C12.6886 7.92081 12.1321 8.28966 12.1321 8.93884V15.0608C12.1321 15.71 12.6886 16.0779 13.3205 16.2411C21.7525 18.4051 28.2078 18.7002 35.3939 18.7267H36.6081C43.7893 18.7002 50.2495 18.4051 58.6795 16.2411C59.3124 16.0779 59.868 15.71 59.868 15.0608V8.93884C59.868 8.28966 59.3124 7.92081 58.6795 7.75851C50.1831 5.57491 43.6883 5.2995 36.4387 5.27392H35.5623Z" fill="#D61627"/>
</g>
<defs>
<clipPath id="clip0">
<rect width="72" height="24" fill="white"/>
</clipPath>
</defs>
</svg>
