<svg width="48" height="48" viewBox="0 0 48 48" fill="none" xmlns="http://www.w3.org/2000/svg">
<rect width="48" height="48" fill="#E53E3E"/>
<mask id="path-2-inside-1" fill="white">
<path d="M36.9148 23.8924C36.9148 27.3176 35.5541 30.6025 33.1321 33.0245C30.7102 35.4465 27.4252 36.8072 24 36.8072C20.5748 36.8072 17.2899 35.4465 14.8679 33.0245C12.4459 30.6025 11.0852 27.3176 11.0852 23.8924L24 23.8924H36.9148Z"/>
</mask>
<path d="M36.9148 23.8924C36.9148 27.3176 35.5541 30.6025 33.1321 33.0245C30.7102 35.4465 27.4252 36.8072 24 36.8072C20.5748 36.8072 17.2899 35.4465 14.8679 33.0245C12.4459 30.6025 11.0852 27.3176 11.0852 23.8924L24 23.8924H36.9148Z" stroke="white" stroke-width="2.58" mask="url(#path-2-inside-1)"/>
<mask id="path-3-inside-2" fill="white">
<path d="M29.1659 24.2152C29.1659 25.5853 28.6217 26.8993 27.6529 27.8681C26.6841 28.8369 25.3701 29.3812 24 29.3812C22.6299 29.3812 21.316 28.8369 20.3472 27.8681C19.3784 26.8993 18.8341 25.5853 18.8341 24.2152L24 24.2152H29.1659Z"/>
</mask>
<path d="M29.1659 24.2152C29.1659 25.5853 28.6217 26.8993 27.6529 27.8681C26.6841 28.8369 25.3701 29.3812 24 29.3812C22.6299 29.3812 21.316 28.8369 20.3472 27.8681C19.3784 26.8993 18.8341 25.5853 18.8341 24.2152L24 24.2152H29.1659Z" stroke="white" stroke-width="2.58" mask="url(#path-3-inside-2)"/>
<rect x="11.0852" y="35.6233" width="25.8296" height="1.29148" rx="0.64574" fill="white"/>
<mask id="path-5-inside-3" fill="white">
<path fill-rule="evenodd" clip-rule="evenodd" d="M17.5426 19.0314L24 12.7031L30.4574 19.0314L36.9148 12.7031V25.3597H11.0852V12.7031L17.5426 19.0314Z"/>
</mask>
<path d="M24 12.7031L24.9029 11.7817L24 10.8969L23.0971 11.7817L24 12.7031ZM17.5426 19.0314L16.6397 19.9527L17.5426 20.8375L18.4455 19.9527L17.5426 19.0314ZM30.4574 19.0314L29.5545 19.9527L30.4574 20.8375L31.3603 19.9527L30.4574 19.0314ZM36.9148 12.7031H38.2048V9.63267L36.0119 11.7817L36.9148 12.7031ZM36.9148 25.3597V26.6497H38.2048V25.3597H36.9148ZM11.0852 25.3597H9.79521V26.6497H11.0852V25.3597ZM11.0852 12.7031L11.9881 11.7817L9.79521 9.63267V12.7031H11.0852ZM23.0971 11.7817L16.6397 18.11L18.4455 19.9527L24.9029 13.6244L23.0971 11.7817ZM31.3603 18.11L24.9029 11.7817L23.0971 13.6244L29.5545 19.9527L31.3603 18.11ZM36.0119 11.7817L29.5545 18.11L31.3603 19.9527L37.8177 13.6244L36.0119 11.7817ZM38.2048 25.3597V12.7031H35.6248V25.3597H38.2048ZM11.0852 26.6497H36.9148V24.0697H11.0852V26.6497ZM9.79521 12.7031V25.3597H12.3752V12.7031H9.79521ZM18.4455 18.11L11.9881 11.7817L10.1823 13.6244L16.6397 19.9527L18.4455 18.11Z" fill="white" mask="url(#path-5-inside-3)"/>
</svg>
