<svg width="82" height="24" viewBox="0 0 82 24" fill="none" xmlns="http://www.w3.org/2000/svg">
<g clip-path="url(#clip0)">
<path d="M0.0961535 16.4925C0.0961535 15.3004 0.075428 14.3024 0.0113678 13.4095H2.25442L2.36087 14.9415H2.42305C2.93082 14.1329 3.86158 13.1747 5.59685 13.1747C6.95154 13.1747 8.00853 13.9417 8.45319 15.0892H8.49652C8.85639 14.5154 9.27843 14.0894 9.76454 13.793C10.3364 13.3877 10.9939 13.1747 11.839 13.1747C13.5535 13.1747 15.2869 14.3441 15.2869 17.6637V23.7653H12.748V18.0444C12.748 16.323 12.1555 15.3004 10.9073 15.3004C10.0189 15.3004 9.36228 15.9405 9.08814 16.6847C9.01185 16.9687 8.96916 17.2608 8.96096 17.5549V23.7662H6.4221V17.767C6.4221 16.3239 5.85121 15.3013 4.64443 15.3013C3.67316 15.3013 3.01749 16.0683 2.78197 16.7898C2.6774 17.0454 2.63407 17.3447 2.63407 17.6401V23.7662H0.0961535V16.4925ZM25.1795 21.2788C25.1795 22.2134 25.2219 23.1271 25.3265 23.7662H22.9779L22.8093 22.6187H22.7452C22.1103 23.4273 21.0307 23.9992 19.7005 23.9992C17.626 23.9992 16.4626 22.4908 16.4626 20.9162C16.4626 18.2981 18.7669 16.982 22.5775 17.0028V16.8334C22.5775 16.1516 22.3015 15.0249 20.4814 15.0249C19.4649 15.0249 18.408 15.3449 17.7099 15.7899L17.2021 14.0884C17.9642 13.6197 19.2973 13.1737 20.9251 13.1737C24.2271 13.1737 25.1804 15.2815 25.1804 17.5331L25.1795 21.2788ZM22.6397 18.7062C20.798 18.6627 19.0429 19.067 19.0429 20.6407C19.0429 21.6614 19.7005 22.1301 20.5248 22.1301C21.5601 22.1301 22.3232 21.4474 22.5559 20.7041C22.6128 20.5183 22.6414 20.3248 22.6406 20.1303V18.7062H22.6397ZM26.9769 16.4925C26.9769 15.3004 26.9553 14.3024 26.8941 13.4095H29.1767L29.3029 14.9643H29.367C29.8107 14.1547 30.9327 13.1747 32.6463 13.1747C34.4456 13.1747 36.3062 14.3441 36.3062 17.6211V23.7653H33.7042V17.9185C33.7042 16.43 33.1531 15.2994 31.7362 15.2994C30.7009 15.2994 29.9793 16.0446 29.7052 16.8324C29.6204 17.0653 29.5997 17.3854 29.5997 17.6808V23.7643H26.976L26.9769 16.4925ZM47.5902 9.24902V20.8528C47.5902 21.9161 47.6335 23.0665 47.675 23.7662H45.349L45.2426 22.1301H45.1993C44.5869 23.2777 43.3368 24.0001 41.8361 24.0001C39.3811 24.0001 37.4357 21.8953 37.4357 18.7072C37.4131 15.2398 39.5704 13.1756 42.0481 13.1756C43.4649 13.1756 44.4805 13.7712 44.9458 14.5401H44.9901V9.24997H47.5911V9.24902H47.5902ZM44.9892 17.7262C44.9892 17.5151 44.9685 17.2594 44.9251 17.0454C44.6924 16.0266 43.8691 15.1962 42.683 15.1962C41.0118 15.1962 40.0791 16.6856 40.0791 18.6201C40.0791 20.5109 41.0109 21.8943 42.6623 21.8943C43.7183 21.8943 44.65 21.17 44.9035 20.0432C44.9675 19.8103 44.9901 19.5537 44.9901 19.2781V17.7262H44.9892ZM49.431 23.7662V13.4095H52.0565V23.7662H49.431ZM53.8954 16.7491C53.8954 15.3458 53.8756 14.345 53.8125 13.4105H56.0763L56.1592 15.3866H56.2449C56.7527 13.9199 57.9576 13.4105 59.0608 13.4105C59.3142 13.4105 59.4611 13.3669 59.6722 13.4105V15.7085C59.4225 15.653 59.1676 15.6244 58.9119 15.6233C57.6609 15.6233 56.8149 16.4319 56.5831 17.5994C56.5319 17.8666 56.5038 18.1378 56.4993 18.4099V23.7672H53.8954V16.7491ZM60.8799 23.7662V13.4095H63.5016V23.7662H60.8799Z" fill="#0D2B5B"/>
<path d="M79.8332 2.45612C78.5341 0.966715 77.1531 1.64088 76.0556 2.18911C75.594 2.41825 72.2619 4.3167 72.2619 4.3167C70.4362 5.07324 69.0146 4.24758 68.4569 3.55258C68.4036 3.48668 68.3554 3.41671 68.3128 3.34333L68.1828 3.11703C67.963 2.73507 67.7188 2.36786 67.4517 2.01773C67.2896 1.8055 67.114 1.60403 66.926 1.41458C65.6769 0.146736 63.6806 -0.74047 60.3439 0.871082C58.764 1.79143 53.6175 4.74657 53.6175 4.74657C51.6835 5.54667 50.2044 4.57235 49.724 3.85747C49.7024 3.8307 49.6834 3.80184 49.6675 3.77131L49.6044 3.66336L49.2784 3.12744C49.1313 2.89268 48.9735 2.66488 48.8055 2.44476C48.6418 2.23389 48.4659 2.03281 48.2789 1.84256C47.0382 0.582291 45.0523 -0.303021 41.7447 1.27823C39.7447 2.42582 35.0928 5.0988 35.0928 5.0988L35.0909 5.1007L31.6863 7.05596L33.448 9.22994C34.1894 9.94008 35.5827 11.1047 37.7381 10.1228C37.7381 10.1228 43.6873 6.66017 43.7108 6.64975C48.797 3.84422 51.3067 6.52477 52.4164 8.31149C52.455 8.36735 52.4861 8.42795 52.521 8.48192L52.5229 8.48476C52.537 8.50654 52.5455 8.52643 52.5577 8.54726L52.683 8.75367C53.2238 9.57744 54.0763 10.1096 55.0928 10.085C55.6533 10.0736 56.0339 9.8899 56.5879 9.58028L62.3439 6.22461L62.3561 6.21893C67.5064 3.37931 70.0584 6.23503 71.1484 8.02175C71.2332 8.17609 71.3293 8.3238 71.4282 8.46109C71.968 9.1968 72.7122 9.67875 73.658 9.65508C74.2826 9.64277 74.9826 9.26592 75.0871 9.1968L81.9877 5.19349C81.9896 5.19538 81.285 4.12448 79.8332 2.45612Z" fill="#FDD213"/>
</g>
<defs>
<clipPath id="clip0">
<rect width="82" height="24" fill="white"/>
</clipPath>
</defs>
</svg>
