<svg width="40" height="24" viewBox="0 0 40 24" fill="none" xmlns="http://www.w3.org/2000/svg">
<g clip-path="url(#clip0)">
<path d="M25.6407 22H14.3589V2H25.6409L25.6407 22Z" fill="#FF5F00"/>
<path d="M14.8869 12C14.8869 8.17251 16.6858 4.76297 19.487 2.56571C17.3666 0.90005 14.744 -0.00396176 12.0437 1.30517e-05C5.39201 1.30517e-05 0 5.37251 0 12C0 18.6275 5.39201 24 12.0437 24C14.7441 24.004 17.3667 23.1 19.4872 21.4343C16.6861 19.2374 14.8869 15.8277 14.8869 12Z" fill="#EB001B"/>
<path d="M40.0001 12C40.0001 18.6275 34.3246 24 27.3231 24C24.4805 24.0039 21.7197 23.0999 19.4873 21.4343C22.4366 19.237 24.3301 15.8277 24.3301 12C24.3301 8.17232 22.4366 4.76297 19.4873 2.56571C21.7196 0.9001 24.4804 -0.00389209 27.3229 1.25964e-05C34.3244 1.25964e-05 39.9999 5.37251 39.9999 12" fill="#F79E1B"/>
</g>
<defs>
<clipPath id="clip0">
<rect width="40" height="24" fill="white"/>
</clipPath>
</defs>
</svg>
