<svg width="48" height="24" viewBox="0 0 48 24" fill="none" xmlns="http://www.w3.org/2000/svg">
<path d="M48 0H0V24H48V0Z" fill="#4C3494"/>
<path fill-rule="evenodd" clip-rule="evenodd" d="M11.1115 5.61279C14.5886 5.61279 17.4233 8.46634 17.4233 12.0002C17.4233 15.5341 14.5886 18.3876 11.1115 18.3876C7.61541 18.3876 4.78076 15.5341 4.78076 12.0002C4.78076 8.46634 7.61541 5.61279 11.1115 5.61279ZM11.1115 7.9939C13.2847 7.9939 15.0611 9.78917 15.0611 12.0002C15.0611 14.2112 13.2847 16.0065 11.1115 16.0065C8.91934 16.0065 7.14297 14.2112 7.14297 12.0002C7.14297 9.78917 8.91934 7.9939 11.1115 7.9939ZM36.8878 5.61279C40.3839 5.61279 43.2186 8.46634 43.2186 12.0002C43.2186 15.5341 40.3839 18.3876 36.8878 18.3876C33.4107 18.3876 30.576 15.5341 30.576 12.0002C30.576 8.46634 33.4107 5.61279 36.8878 5.61279ZM36.8878 7.9939C39.08 7.9939 40.8564 9.78917 40.8564 12.0002C40.8564 14.2112 39.08 16.0065 36.8878 16.0065C34.7146 16.0065 32.9382 14.2112 32.9382 12.0002C32.9382 9.78917 34.7146 7.9939 36.8878 7.9939ZM18.8784 8.08838L22.7146 16.7057C22.7902 16.8569 23.376 18.3309 25.2091 18.2553L29.8768 7.35138V6.04744H25.8894V8.08838H27.1556L24.4532 14.7404L21.4296 8.08838H22.7713V6.04744H17.7256V8.08838H18.8784Z" fill="#FEFEFE"/>
</svg>
