<svg width="72" height="24" viewBox="0 0 72 24" fill="none" xmlns="http://www.w3.org/2000/svg">
<path d="M31.2127 23.6H25.3376L29.0095 0.414295H34.8851L31.2127 23.6ZM20.3952 0.414295L14.7942 16.3616L14.1314 12.9275L14.132 12.9288L12.1551 2.5019C12.1551 2.5019 11.9161 0.414295 9.36821 0.414295H0.108652L0 0.806883C0 0.806883 2.83159 1.4122 6.14547 3.45701L11.2497 23.6006H17.371L26.7181 0.414295H20.3952ZM66.6054 23.6H72L67.2966 0.413675H62.5738C60.393 0.413675 59.8618 2.14156 59.8618 2.14156L51.0996 23.6H57.2239L58.4487 20.156H65.9173L66.6054 23.6ZM60.1406 15.3984L63.2276 6.72176L64.9642 15.3984H60.1406ZM51.559 5.98992L52.3974 1.01093C52.3974 1.01093 49.8103 0 47.1133 0C44.1978 0 37.2742 1.30925 37.2742 7.67563C37.2742 13.6656 45.4002 13.74 45.4002 16.8863C45.4002 20.0326 38.1115 19.4688 35.706 17.4848L34.8326 22.6908C34.8326 22.6908 37.4559 24 41.464 24C45.4732 24 51.5215 21.8671 51.5215 16.062C51.5215 10.0336 43.3225 9.47236 43.3225 6.85138C43.3231 4.22979 49.0449 4.56655 51.559 5.98992Z" fill="#2566AF"/>
<path d="M14.1318 12.928L12.155 2.50118C12.155 2.50118 11.916 0.413574 9.36811 0.413574H0.108651L0 0.806162C0 0.806162 4.45045 1.75383 8.71922 5.30449C12.8009 8.69825 14.1318 12.928 14.1318 12.928Z" fill="#E6A540"/>
</svg>
