<svg width="24" height="24" viewBox="0 0 24 24" fill="none" xmlns="http://www.w3.org/2000/svg">
<path d="M10.3636 3C8.90719 3 7.48351 3.43187 6.27257 4.24099C5.06164 5.05011 4.11783 6.20015 3.56049 7.54567C3.00316 8.89119 2.85734 10.3718 3.14146 11.8002C3.42559 13.2286 4.1269 14.5406 5.15672 15.5704C6.18654 16.6003 7.4986 17.3016 8.927 17.5857C10.3554 17.8698 11.836 17.724 13.1815 17.1667C14.527 16.6093 15.6771 15.6655 16.4862 14.4546C17.2953 13.2437 17.7272 11.82 17.7272 10.3636C17.727 8.41069 16.9512 6.5378 15.5703 5.15688C14.1894 3.77597 12.3165 3.00012 10.3636 3V3Z" stroke="#2D3748" stroke-width="2" stroke-miterlimit="10"/>
<path d="M15.8573 15.8573L21 21" stroke="#2D3748" stroke-width="2" stroke-miterlimit="10" stroke-linecap="round"/>
</svg>
