<svg width="24" height="24" viewBox="0 0 24 24" fill="none" xmlns="http://www.w3.org/2000/svg">
<path d="M24 0H0V24H24V0Z" fill="#50ABF1"/>
<path d="M3.17962 17.7904C4.77688 18.8035 6.67158 19.3897 8.70262 19.3897C14.4086 19.3897 19.034 14.7638 19.034 9.05835C19.034 8.91589 19.031 8.77449 19.0255 8.63352C19.2319 8.4711 20.5083 7.44803 20.8212 6.79032C20.8212 6.79032 19.7846 7.2211 18.7701 7.32259C18.7681 7.32259 18.7657 7.32306 18.7637 7.32306C18.7637 7.32306 18.7657 7.32206 18.7691 7.31958C18.8626 7.25713 20.1695 6.3675 20.3464 5.3075C20.3464 5.3075 19.6133 5.69884 18.5867 6.0412C18.4168 6.09765 18.2389 6.15316 18.0555 6.20461C17.3937 5.4984 16.4532 5.05762 15.4092 5.05762C13.4066 5.05762 11.7838 6.67989 11.7838 8.68096C11.7838 8.96334 11.8163 9.23819 11.8778 9.50208C11.5979 9.4906 7.33628 9.25167 4.4371 5.74076C4.4371 5.74076 2.70439 8.1062 5.46966 10.5386C5.46966 10.5386 4.62905 10.5051 3.90384 10.0718C3.90384 10.0718 3.63747 12.9375 6.76905 13.6702C6.76905 13.6702 6.15285 13.9036 5.16979 13.7372C5.16979 13.7372 5.71954 16.0526 8.50181 16.269C8.50181 16.269 6.30173 18.2565 3.17862 17.7902L3.17962 17.7904Z" fill="white"/>
</svg>
